# xmcd
#
# Track frame offsets: 
#        150
#        2532
#        6757
#        9773
#        11093
#        13769
#        17393
#        19267
#        22358
#        25296
#        27271
#        29304
#        30844
#        34749
#        37051
#        38944
#        41788
#        44363
#        48953
#        50726
#        52018
#        54309
#        58216
#        64729
#        68769
#        76836
#        79122
#        81409
#        87479
#        89633
#        91139
#        92403
#        94445
#        96112
#        99017
#        104757
#        105770
#        108044
#        113433
#        116908
#        123627
#        128427
#        132065
#
# Disc length: 1821 seconds
#
# Revision: 0
# Processed by: cddbd v1.5.2PL0 Copyright (c) Steve Scherf et al.
# Submitted via: ExactAudioCopy v0.95a5
#
DISCID=1c071b2b
DTITLE=John Lee Hooker - Step-by-Step
DYEAR=1900
DGENRE=Blues
TTITLE0=Blues Before Sunrise
TTITLE1=Blues Before Sunrise
TTITLE2=Blues Before Sunrise
TTITLE3=Boogie Chillen No. 2
TTITLE4=Boogie Chillen No. 2
TTITLE5=Boogie Chillen No. 2
TTITLE6=Boom Boom
TTITLE7=Boom Boom
TTITLE8=Boom Boom
TTITLE9=Bottle Up And Go
TTITLE10=Bottle Up And Go
TTITLE11=Catfish Blues
TTITLE12=Catfish Blues
TTITLE13=Catfish Blues
TTITLE14=Dimples
TTITLE15=Dimples
TTITLE16=Hoogie Boogie
TTITLE17=Hoogie Boogie
TTITLE18=Hoogie Boogie
TTITLE19=Hoogie Boogie
TTITLE20=Hoogie Boogie
TTITLE21=It Serves Me Right To Suffer
TTITLE22=It Serves Me Right To Suffer
TTITLE23=It Serves Me Right To Suffer
TTITLE24=It Serves Me Right To Suffer
TTITLE25=Mama, You Got A Daughter
TTITLE26=Mama, You Got A Daughter
TTITLE27=Moaning Blues
TTITLE28=One Bourbon, One Scotch, One Beer
TTITLE29=One Bourbon, One Scotch, One Beer
TTITLE30=This Is Hip
TTITLE31=This Is Hip
TTITLE32=This Is Hip
TTITLE33=This Is Hip
TTITLE34=Tupelo
TTITLE35=Tupelo
TTITLE36=Tupelo
TTITLE37=Wednesday Evening Blues
TTITLE38=Wednesday Evening Blues
TTITLE39=Wednesday Evening Blues
TTITLE40=Wednesday Evening Blues
TTITLE41=Wednesday Evening Blues
TTITLE42=Tuning
EXTD=
EXTT0=
EXTT1=
EXTT2=
EXTT3=
EXTT4=
EXTT5=
EXTT6=
EXTT7=
EXTT8=
EXTT9=
EXTT10=
EXTT11=
EXTT12=
EXTT13=
EXTT14=
EXTT15=
EXTT16=
EXTT17=
EXTT18=
EXTT19=
EXTT20=
EXTT21=
EXTT22=
EXTT23=
EXTT24=
EXTT25=
EXTT26=
EXTT27=
EXTT28=
EXTT29=
EXTT30=
EXTT31=
EXTT32=
EXTT33=
EXTT34=
EXTT35=
EXTT36=
EXTT37=
EXTT38=
EXTT39=
EXTT40=
EXTT41=
EXTT42=
PLAYORDER=
